# xmcd CD database file
#
# Track frame offsets:
#	150
#	22712
#	43450
#
# Disc length: 807 seconds
#
# Revision: 1
# Processed by: cddbd v1.5.2PL0 Copyright (c) Steve Scherf et al.
# Submitted via: CDex 1.70beta2
#
DISCID=1c032503
DTITLE=PRINCESS PRINCESS - DIAMONDS [Bonus Track]
DYEAR=1993
DGENRE=JPop
TTITLE0=DIAMONDS
TTITLE1=M
TTITLE2=世界でいちばん熱い夏 ('92 mix)
EXTD=YEAR: 1993
EXTT0=
EXTT1=
EXTT2=
PLAYORDER=
